<mxfile host="app.diagrams.net" agent="Mozilla/5.0 (Windows NT 10.0; Win64; x64) AppleWebKit/537.36 (KHTML, like Gecko) Chrome/131.0.0.0 Safari/537.36" version="25.0.3">
  <diagram name="Page-1" id="C8sI8S7akujIS43JbPkm">
    <mxGraphModel dx="2388" dy="1168" grid="1" gridSize="10" guides="1" tooltips="1" connect="1" arrows="1" fold="1" page="1" pageScale="1" pageWidth="827" pageHeight="1169" math="0" shadow="0">
      <root>
        <mxCell id="0" />
        <mxCell id="1" parent="0" />
        <mxCell id="2LCq1G3_xKqZmttZIo4R-8" value="" style="edgeStyle=orthogonalEdgeStyle;rounded=0;orthogonalLoop=1;jettySize=auto;html=1;" edge="1" parent="1" source="2LCq1G3_xKqZmttZIo4R-6" target="2LCq1G3_xKqZmttZIo4R-7">
          <mxGeometry relative="1" as="geometry">
            <Array as="points">
              <mxPoint x="300" y="400" />
              <mxPoint x="600" y="400" />
            </Array>
          </mxGeometry>
        </mxCell>
        <mxCell id="2LCq1G3_xKqZmttZIo4R-10" value="" style="edgeStyle=orthogonalEdgeStyle;rounded=0;orthogonalLoop=1;jettySize=auto;html=1;" edge="1" parent="1" source="2LCq1G3_xKqZmttZIo4R-6" target="2LCq1G3_xKqZmttZIo4R-9">
          <mxGeometry relative="1" as="geometry">
            <Array as="points">
              <mxPoint x="300" y="380" />
              <mxPoint x="300" y="380" />
            </Array>
          </mxGeometry>
        </mxCell>
        <mxCell id="2LCq1G3_xKqZmttZIo4R-15" style="edgeStyle=orthogonalEdgeStyle;rounded=0;orthogonalLoop=1;jettySize=auto;html=1;" edge="1" parent="1" source="2LCq1G3_xKqZmttZIo4R-6" target="2LCq1G3_xKqZmttZIo4R-22">
          <mxGeometry relative="1" as="geometry">
            <mxPoint x="511" y="440" as="targetPoint" />
            <Array as="points">
              <mxPoint x="300" y="400" />
              <mxPoint x="191" y="400" />
            </Array>
          </mxGeometry>
        </mxCell>
        <mxCell id="2LCq1G3_xKqZmttZIo4R-6" value="Pages" style="shape=folder;fontStyle=1;spacingTop=10;tabWidth=40;tabHeight=14;tabPosition=left;html=1;whiteSpace=wrap;" vertex="1" parent="1">
          <mxGeometry x="267" y="310" width="70" height="50" as="geometry" />
        </mxCell>
        <mxCell id="2LCq1G3_xKqZmttZIo4R-7" value="detail" style="shape=folder;fontStyle=1;spacingTop=10;tabWidth=40;tabHeight=14;tabPosition=left;html=1;whiteSpace=wrap;" vertex="1" parent="1">
          <mxGeometry x="580" y="430" width="70" height="50" as="geometry" />
        </mxCell>
        <mxCell id="2LCq1G3_xKqZmttZIo4R-23" style="edgeStyle=orthogonalEdgeStyle;rounded=0;orthogonalLoop=1;jettySize=auto;html=1;" edge="1" parent="1" source="2LCq1G3_xKqZmttZIo4R-9" target="2LCq1G3_xKqZmttZIo4R-16">
          <mxGeometry relative="1" as="geometry">
            <Array as="points">
              <mxPoint x="315" y="510" />
              <mxPoint x="246" y="510" />
            </Array>
          </mxGeometry>
        </mxCell>
        <mxCell id="2LCq1G3_xKqZmttZIo4R-9" value="index" style="shape=folder;fontStyle=1;spacingTop=10;tabWidth=40;tabHeight=14;tabPosition=left;html=1;whiteSpace=wrap;" vertex="1" parent="1">
          <mxGeometry x="280" y="440" width="70" height="50" as="geometry" />
        </mxCell>
        <mxCell id="2LCq1G3_xKqZmttZIo4R-16" value="&lt;div&gt;&lt;br&gt;&lt;/div&gt;&lt;div&gt;&lt;br&gt;&lt;/div&gt;&lt;div&gt;&lt;br&gt;&lt;/div&gt;&lt;div&gt;&lt;br&gt;&lt;/div&gt;&lt;div&gt;&lt;br&gt;&lt;/div&gt;index.js" style="points=[];aspect=fixed;html=1;align=center;shadow=0;dashed=0;fillColor=#ffaaff;strokeColor=none;shape=mxgraph.alibaba_cloud.nodejs_performance_platform;" vertex="1" parent="1">
          <mxGeometry x="225" y="544" width="42" height="47.400000000000006" as="geometry" />
        </mxCell>
        <mxCell id="2LCq1G3_xKqZmttZIo4R-20" value="index.html" style="verticalLabelPosition=bottom;html=1;verticalAlign=top;align=center;strokeColor=none;fillColor=#FF6A00;shape=mxgraph.azure.script_file;pointerEvents=1;" vertex="1" parent="1">
          <mxGeometry x="280" y="540" width="47.5" height="50" as="geometry" />
        </mxCell>
        <mxCell id="2LCq1G3_xKqZmttZIo4R-21" value="index.css" style="verticalLabelPosition=bottom;html=1;verticalAlign=top;align=center;strokeColor=none;fillColor=#00BEF2;shape=mxgraph.azure.code_file;pointerEvents=1;" vertex="1" parent="1">
          <mxGeometry x="340" y="540" width="47.5" height="50" as="geometry" />
        </mxCell>
        <mxCell id="2LCq1G3_xKqZmttZIo4R-22" value="&lt;div&gt;&lt;br&gt;&lt;/div&gt;&lt;div&gt;&lt;br&gt;&lt;/div&gt;&lt;div&gt;&lt;br&gt;&lt;/div&gt;&lt;div&gt;&lt;br&gt;&lt;/div&gt;&lt;div&gt;&lt;br&gt;&lt;/div&gt;index.js" style="points=[];aspect=fixed;html=1;align=center;shadow=0;dashed=0;fillColor=#ffaaff;strokeColor=none;shape=mxgraph.alibaba_cloud.nodejs_performance_platform;" vertex="1" parent="1">
          <mxGeometry x="170" y="430" width="42" height="47.400000000000006" as="geometry" />
        </mxCell>
        <mxCell id="2LCq1G3_xKqZmttZIo4R-24" style="edgeStyle=orthogonalEdgeStyle;rounded=0;orthogonalLoop=1;jettySize=auto;html=1;entryX=0.5;entryY=0;entryDx=0;entryDy=0;entryPerimeter=0;" edge="1" parent="1" source="2LCq1G3_xKqZmttZIo4R-9" target="2LCq1G3_xKqZmttZIo4R-20">
          <mxGeometry relative="1" as="geometry">
            <Array as="points">
              <mxPoint x="315" y="510" />
              <mxPoint x="304" y="510" />
            </Array>
          </mxGeometry>
        </mxCell>
        <mxCell id="2LCq1G3_xKqZmttZIo4R-25" style="edgeStyle=orthogonalEdgeStyle;rounded=0;orthogonalLoop=1;jettySize=auto;html=1;entryX=0.5;entryY=0;entryDx=0;entryDy=0;entryPerimeter=0;" edge="1" parent="1" source="2LCq1G3_xKqZmttZIo4R-9" target="2LCq1G3_xKqZmttZIo4R-21">
          <mxGeometry relative="1" as="geometry">
            <Array as="points">
              <mxPoint x="315" y="510" />
              <mxPoint x="364" y="510" />
            </Array>
          </mxGeometry>
        </mxCell>
        <mxCell id="2LCq1G3_xKqZmttZIo4R-26" value="&lt;div&gt;&lt;br&gt;&lt;/div&gt;&lt;div&gt;&lt;br&gt;&lt;/div&gt;&lt;div&gt;&lt;br&gt;&lt;/div&gt;&lt;div&gt;&lt;br&gt;&lt;/div&gt;&lt;div&gt;&lt;br&gt;&lt;/div&gt;detail.js" style="points=[];aspect=fixed;html=1;align=center;shadow=0;dashed=0;fillColor=#ffaaff;strokeColor=none;shape=mxgraph.alibaba_cloud.nodejs_performance_platform;" vertex="1" parent="1">
          <mxGeometry x="420" y="645.6" width="42" height="47.400000000000006" as="geometry" />
        </mxCell>
        <mxCell id="2LCq1G3_xKqZmttZIo4R-27" value="detail.html" style="verticalLabelPosition=bottom;html=1;verticalAlign=top;align=center;strokeColor=none;fillColor=#FF6A00;shape=mxgraph.azure.script_file;pointerEvents=1;" vertex="1" parent="1">
          <mxGeometry x="478.75" y="642" width="47.5" height="50" as="geometry" />
        </mxCell>
        <mxCell id="2LCq1G3_xKqZmttZIo4R-29" value="Tel" style="shape=folder;fontStyle=1;spacingTop=10;tabWidth=40;tabHeight=14;tabPosition=left;html=1;whiteSpace=wrap;" vertex="1" parent="1">
          <mxGeometry x="560" y="550" width="70" height="50" as="geometry" />
        </mxCell>
        <mxCell id="2LCq1G3_xKqZmttZIo4R-43" style="edgeStyle=orthogonalEdgeStyle;rounded=0;orthogonalLoop=1;jettySize=auto;html=1;" edge="1" parent="1" source="2LCq1G3_xKqZmttZIo4R-30" target="2LCq1G3_xKqZmttZIo4R-26">
          <mxGeometry relative="1" as="geometry">
            <Array as="points">
              <mxPoint x="475" y="620" />
              <mxPoint x="440" y="620" />
            </Array>
          </mxGeometry>
        </mxCell>
        <mxCell id="2LCq1G3_xKqZmttZIo4R-30" value="Generique" style="shape=folder;fontStyle=1;spacingTop=10;tabWidth=40;tabHeight=14;tabPosition=left;html=1;whiteSpace=wrap;" vertex="1" parent="1">
          <mxGeometry x="440" y="550" width="70" height="50" as="geometry" />
        </mxCell>
        <mxCell id="2LCq1G3_xKqZmttZIo4R-47" style="edgeStyle=orthogonalEdgeStyle;rounded=0;orthogonalLoop=1;jettySize=auto;html=1;" edge="1" parent="1" source="2LCq1G3_xKqZmttZIo4R-31" target="2LCq1G3_xKqZmttZIo4R-38">
          <mxGeometry relative="1" as="geometry">
            <Array as="points">
              <mxPoint x="715" y="620" />
              <mxPoint x="691" y="620" />
            </Array>
          </mxGeometry>
        </mxCell>
        <mxCell id="2LCq1G3_xKqZmttZIo4R-31" value="Brand" style="shape=folder;fontStyle=1;spacingTop=10;tabWidth=40;tabHeight=14;tabPosition=left;html=1;whiteSpace=wrap;" vertex="1" parent="1">
          <mxGeometry x="680" y="550" width="70" height="50" as="geometry" />
        </mxCell>
        <mxCell id="2LCq1G3_xKqZmttZIo4R-32" style="edgeStyle=orthogonalEdgeStyle;rounded=0;orthogonalLoop=1;jettySize=auto;html=1;entryX=0;entryY=0;entryDx=20;entryDy=0;entryPerimeter=0;" edge="1" parent="1" source="2LCq1G3_xKqZmttZIo4R-7" target="2LCq1G3_xKqZmttZIo4R-30">
          <mxGeometry relative="1" as="geometry">
            <Array as="points">
              <mxPoint x="615" y="510" />
              <mxPoint x="460" y="510" />
            </Array>
          </mxGeometry>
        </mxCell>
        <mxCell id="2LCq1G3_xKqZmttZIo4R-33" style="edgeStyle=orthogonalEdgeStyle;rounded=0;orthogonalLoop=1;jettySize=auto;html=1;entryX=0;entryY=0;entryDx=20;entryDy=0;entryPerimeter=0;" edge="1" parent="1" source="2LCq1G3_xKqZmttZIo4R-7" target="2LCq1G3_xKqZmttZIo4R-29">
          <mxGeometry relative="1" as="geometry">
            <Array as="points">
              <mxPoint x="615" y="510" />
              <mxPoint x="580" y="510" />
            </Array>
          </mxGeometry>
        </mxCell>
        <mxCell id="2LCq1G3_xKqZmttZIo4R-34" style="edgeStyle=orthogonalEdgeStyle;rounded=0;orthogonalLoop=1;jettySize=auto;html=1;entryX=0;entryY=0;entryDx=20;entryDy=0;entryPerimeter=0;" edge="1" parent="1" source="2LCq1G3_xKqZmttZIo4R-7" target="2LCq1G3_xKqZmttZIo4R-31">
          <mxGeometry relative="1" as="geometry">
            <Array as="points">
              <mxPoint x="615" y="510" />
              <mxPoint x="700" y="510" />
            </Array>
          </mxGeometry>
        </mxCell>
        <mxCell id="2LCq1G3_xKqZmttZIo4R-35" value="&lt;div&gt;&lt;br&gt;&lt;/div&gt;&lt;div&gt;&lt;br&gt;&lt;/div&gt;&lt;div&gt;&lt;br&gt;&lt;/div&gt;&lt;div&gt;&lt;br&gt;&lt;/div&gt;&lt;div&gt;&lt;br&gt;&lt;/div&gt;detail.js" style="points=[];aspect=fixed;html=1;align=center;shadow=0;dashed=0;fillColor=#ffaaff;strokeColor=none;shape=mxgraph.alibaba_cloud.nodejs_performance_platform;" vertex="1" parent="1">
          <mxGeometry x="547.5" y="646" width="42" height="47.400000000000006" as="geometry" />
        </mxCell>
        <mxCell id="2LCq1G3_xKqZmttZIo4R-36" value="detail.html" style="verticalLabelPosition=bottom;html=1;verticalAlign=top;align=center;strokeColor=none;fillColor=#FF6A00;shape=mxgraph.azure.script_file;pointerEvents=1;" vertex="1" parent="1">
          <mxGeometry x="602.5" y="642" width="47.5" height="50" as="geometry" />
        </mxCell>
        <mxCell id="2LCq1G3_xKqZmttZIo4R-38" value="&lt;div&gt;&lt;br&gt;&lt;/div&gt;&lt;div&gt;&lt;br&gt;&lt;/div&gt;&lt;div&gt;&lt;br&gt;&lt;/div&gt;&lt;div&gt;&lt;br&gt;&lt;/div&gt;&lt;div&gt;&lt;br&gt;&lt;/div&gt;detail.js" style="points=[];aspect=fixed;html=1;align=center;shadow=0;dashed=0;fillColor=#ffaaff;strokeColor=none;shape=mxgraph.alibaba_cloud.nodejs_performance_platform;" vertex="1" parent="1">
          <mxGeometry x="670" y="644" width="42" height="47.400000000000006" as="geometry" />
        </mxCell>
        <mxCell id="2LCq1G3_xKqZmttZIo4R-39" value="detail.html" style="verticalLabelPosition=bottom;html=1;verticalAlign=top;align=center;strokeColor=none;fillColor=#FF6A00;shape=mxgraph.azure.script_file;pointerEvents=1;" vertex="1" parent="1">
          <mxGeometry x="725" y="640" width="47.5" height="50" as="geometry" />
        </mxCell>
        <mxCell id="2LCq1G3_xKqZmttZIo4R-41" value="detail.css" style="verticalLabelPosition=bottom;html=1;verticalAlign=top;align=center;strokeColor=none;fillColor=#00BEF2;shape=mxgraph.azure.code_file;pointerEvents=1;" vertex="1" parent="1">
          <mxGeometry x="800" y="540" width="47.5" height="50" as="geometry" />
        </mxCell>
        <mxCell id="2LCq1G3_xKqZmttZIo4R-42" style="edgeStyle=orthogonalEdgeStyle;rounded=0;orthogonalLoop=1;jettySize=auto;html=1;entryX=0.5;entryY=0;entryDx=0;entryDy=0;entryPerimeter=0;" edge="1" parent="1" source="2LCq1G3_xKqZmttZIo4R-7" target="2LCq1G3_xKqZmttZIo4R-41">
          <mxGeometry relative="1" as="geometry">
            <Array as="points">
              <mxPoint x="615" y="510" />
              <mxPoint x="824" y="510" />
            </Array>
          </mxGeometry>
        </mxCell>
        <mxCell id="2LCq1G3_xKqZmttZIo4R-44" style="edgeStyle=orthogonalEdgeStyle;rounded=0;orthogonalLoop=1;jettySize=auto;html=1;entryX=0.5;entryY=0;entryDx=0;entryDy=0;entryPerimeter=0;" edge="1" parent="1" source="2LCq1G3_xKqZmttZIo4R-30" target="2LCq1G3_xKqZmttZIo4R-27">
          <mxGeometry relative="1" as="geometry">
            <Array as="points">
              <mxPoint x="475" y="620" />
              <mxPoint x="503" y="620" />
            </Array>
          </mxGeometry>
        </mxCell>
        <mxCell id="2LCq1G3_xKqZmttZIo4R-45" style="edgeStyle=orthogonalEdgeStyle;rounded=0;orthogonalLoop=1;jettySize=auto;html=1;entryX=0.5;entryY=0;entryDx=0;entryDy=0;entryPerimeter=0;" edge="1" parent="1" source="2LCq1G3_xKqZmttZIo4R-29" target="2LCq1G3_xKqZmttZIo4R-36">
          <mxGeometry relative="1" as="geometry">
            <Array as="points">
              <mxPoint x="595" y="620" />
              <mxPoint x="626" y="620" />
            </Array>
          </mxGeometry>
        </mxCell>
        <mxCell id="2LCq1G3_xKqZmttZIo4R-46" style="edgeStyle=orthogonalEdgeStyle;rounded=0;orthogonalLoop=1;jettySize=auto;html=1;" edge="1" parent="1" source="2LCq1G3_xKqZmttZIo4R-29" target="2LCq1G3_xKqZmttZIo4R-35">
          <mxGeometry relative="1" as="geometry">
            <Array as="points">
              <mxPoint x="595" y="620" />
              <mxPoint x="569" y="620" />
            </Array>
          </mxGeometry>
        </mxCell>
        <mxCell id="2LCq1G3_xKqZmttZIo4R-48" style="edgeStyle=orthogonalEdgeStyle;rounded=0;orthogonalLoop=1;jettySize=auto;html=1;entryX=0.5;entryY=0;entryDx=0;entryDy=0;entryPerimeter=0;" edge="1" parent="1" source="2LCq1G3_xKqZmttZIo4R-31" target="2LCq1G3_xKqZmttZIo4R-39">
          <mxGeometry relative="1" as="geometry" />
        </mxCell>
      </root>
    </mxGraphModel>
  </diagram>
</mxfile>
